<?xml version="1.0" standalone="no"?>
<!DOCTYPE svg PUBLIC "-//W3C//DTD SVG 20010904//EN"
 "http://www.w3.org/TR/2001/REC-SVG-20010904/DTD/svg10.dtd">
<svg version="1.0" xmlns="http://www.w3.org/2000/svg"
 width="188.000000pt" height="188.000000pt" viewBox="0 0 188.000000 188.000000"
 preserveAspectRatio="xMidYMid meet">
<metadata>
Created by potrace 1.11, written by Peter Selinger 2001-2013
</metadata>
<g transform="translate(0.000000,188.000000) scale(0.100000,-0.100000)"
fill="#000000" stroke="none">
<path d="M885 1670 c-49 -19 -98 -40 -108 -46 -19 -11 -37 1 488 -321 l160
-98 -1 -392 c0 -216 1 -393 4 -393 2 0 49 41 105 92 l101 92 1 335 c0 323 -1
336 -20 354 -19 18 -549 362 -610 396 -29 17 -32 16 -120 -19z"/>
<path d="M495 1470 c-55 -27 -137 -65 -182 -86 -49 -23 -83 -45 -84 -54 -1 -8
-2 -190 -3 -404 -1 -374 0 -391 18 -408 11 -10 23 -18 26 -18 4 0 84 -43 179
-95 95 -52 179 -95 188 -95 9 0 13 -3 10 -7 -4 -3 17 -18 46 -33 28 -15 90
-48 136 -74 47 -25 89 -46 94 -46 8 0 130 65 187 100 8 5 47 26 87 47 130 67
116 14 117 448 l1 378 -37 23 c-21 13 -42 24 -48 24 -5 0 -10 3 -10 8 0 4 -10
12 -23 18 -27 13 -150 79 -215 116 -26 15 -63 35 -82 44 -19 10 -37 20 -40 23
-3 4 -18 13 -35 21 -16 8 -66 36 -111 61 -44 26 -89 49 -100 52 -11 3 -59 -14
-119 -43z m178 -190 c26 -16 49 -30 51 -30 2 0 74 -40 160 -89 86 -50 156 -87
156 -83 0 4 4 2 8 -3 4 -6 18 -18 32 -26 l25 -16 0 -286 c0 -157 -2 -287 -5
-289 -10 -7 -145 -72 -155 -74 -5 -1 -24 -8 -41 -15 -28 -11 -36 -10 -78 15
-25 15 -46 23 -46 19 0 -4 -4 -3 -8 3 -6 9 -65 40 -284 152 -38 19 -69 37 -69
40 -1 4 -2 148 -3 319 l-1 313 90 39 c49 21 97 40 106 40 8 1 36 -12 62 -29z"/>
<path d="M875 904 c-49 -29 -143 -83 -207 -120 -107 -61 -137 -84 -108 -84 6
0 40 -18 76 -40 36 -22 67 -40 69 -40 1 0 60 -34 131 -75 71 -41 131 -75 135
-75 7 0 6 477 -1 482 -3 3 -45 -19 -95 -48z"/>
</g>
</svg>
